# xmcd
#
# Track frame offsets: 
#        150
#        3665
#        22120
#        42789
#        63724
#        87889
#        109131
#        124581
#        142650
#        159612
#        176912
#        193690
#        212540
#        231825
#
# Disc length: 3440 seconds
#
# Revision: 5
# Processed by: cddbd v1.5.2PL0 Copyright (c) Steve Scherf et al.
# Submitted via: ExactAudioCopy v0.95a5
#
DISCID=be0d6e0e
DTITLE=Dr. John - Anutha Zone
DYEAR=1998
DGENRE=Jazz
TTITLE0=Zonata
TTITLE1=Ki Ya Gris Gris
TTITLE2=Voices in My Head
TTITLE3=Hello God
TTITLE4=John Gris
TTITLE5=Party Hellfire
TTITLE6=I Don't Wanna Know
TTITLE7=Anutha Zone
TTITLE8=I Like Ki Yoka
TTITLE9=The Olive Tree
TTITLE10=Why Come
TTITLE11=Soulful Warrior
TTITLE12=The Stroke
TTITLE13=Sweet Home New Orleans
EXTD=
EXTT0=
EXTT1=
EXTT2=
EXTT3=
EXTT4=
EXTT5=
EXTT6=
EXTT7=
EXTT8=
EXTT9=
EXTT10=
EXTT11=
EXTT12=
EXTT13=
PLAYORDER=
